{"title":"Unrest (2006) DVDRemux {HQManiac}","uid":9014879,"size":3159552641,"categoryP":"video","categoryS":"movies","magnet":"?xt=urn:btih:9f71892963bbf05b067226fcd5e678685a05b7fd&amp;dn=Unrest+%282006%29+DVDRemux+%7BHQManiac%7D&amp;tr=udp%3A%2F%2Ftracker.openbittorrent.com%3A80&amp;tr=udp%3A%2F%2Fopen.demonii.com%3A1337&amp;tr=udp%3A%2F%2Ftracker.coppersurfer.tk%3A6969&amp;tr=udp%3A%2F%2Fexodus.desync.com%3A6969","seeders":0,"leechers":2,"uploader":"HQManiac","files":-1,"time":1381174852,"description":"In a medical school, the freshmen students Alison Blanchard, Brian Cross, Carlos Aclar and Rick O'Connor receive the cadaver of a young woman for dissection in their anatomy class of Professor Walter Blackwell. The atheist Alison has a weird sensation that the spirit of the corpse is trying to communicate with her and tries to unravel who the woman was. Meanwhile, all the persons that handle the corpse mysteriously die.\n &lt;a href=&quot;\nhttp://s0.uploads.im/iCDIg.png&quot; rel=&quot;nofollow&quot; target=&quot;_NEW&quot;&gt;\nhttp://s0.uploads.im/iCDIg.png&lt;/a&gt; &lt;a href=&quot;\nhttp://s0.uploads.im/kWG2V.png&quot; rel=&quot;nofollow&quot; target=&quot;_NEW&quot;&gt;\nhttp://s0.uploads.im/kWG2V.png&lt;/a&gt; &lt;a href=&quot;\nhttp://s0.uploads.im/aDF4M.png&quot; rel=&quot;nofollow&quot; target=&quot;_NEW&quot;&gt;\nhttp://s0.uploads.im/aDF4M.png&lt;/a&gt; &lt;a href=&quot;\nhttp://s0.uploads.im/36LNk.png&quot; rel=&quot;nofollow&quot; target=&quot;_NEW&quot;&gt;\nhttp://s0.uploads.im/36LNk.png&lt;/a&gt;\n\nGeneral\nUnique ID                                : 173976299043491866088085657656296648586 (0x82E29DCC01D85315BE2D00D3667AAF8A)\nFormat                                   : Matroska\nFormat version                           : Version 4 / Version 2\nFile size                                : 2.94 GiB\nDuration                                 : 1h 28mn\nOverall bit rate mode                    : Variable\nOverall bit rate                         : 4 769 Kbps\nEncoded date                             : UTC 2013-10-07 17:02:02\nWriting application                      : mkvmerge v6.4.1 ('Omega Point') built on Sep 16 2013 22:05:10\nWriting library                          : libebml v1.3.0 + libmatroska v1.4.1\n\nVideo\nID                                       : 1\nFormat                                   : MPEG Video\nFormat version                           : Version 2\nFormat profile                           : Main@Main\nFormat settings, BVOP                    : No\nFormat settings, Matrix                  : Custom\nCodec ID                                 : V_MPEG2\nCodec ID/Info                            : MPEG 1 or 2 Video\nDuration                                 : 1h 28mn\nBit rate mode                            : Variable\nBit rate                                 : 4 419 Kbps\nMaximum bit rate                         : 9 400 Kbps\nWidth                                    : 720 pixels\nHeight                                   : 576 pixels\nDisplay aspect ratio                     : 4:3\nFrame rate mode                          : Constant\nFrame rate                               : 25.000 fps\nStandard                                 : PAL\nColor space                              : YUV\nChroma subsampling                       : 4:2:0\nBit depth                                : 8 bits\nScan type                                : Interlaced\nScan order                               : Top Field First\nCompression mode                         : Lossy\nBits/(Pixel*Frame)                       : 0.426\nTime code of first frame                 : 00:01:21:03\nTime code source                         : Group of pictures header\nStream size                              : 2.73 GiB (93%)\nLanguage                                 : English\nDefault                                  : Yes\nForced                                   : No\nColor primaries                          : BT.601 PAL\nTransfer characteristics                 : BT.470 System B, BT.470 System G\nMatrix coefficients                      : BT.601\n\nAudio\nID                                       : 2\nFormat                                   : AC-3\nFormat/Info                              : Audio Coding 3\nMode extension                           : CM (complete main)\nFormat settings, Endianness              : Big\nCodec ID                                 : A_AC3\nDuration                                 : 1h 28mn\nBit rate mode                            : Constant\nBit rate                                 : 256 Kbps\nChannel(s)                               : 2 channels\nChannel positions                        : Front: L R\nSampling rate                            : 48.0 KHz\nBit depth                                : 16 bits\nCompression mode                         : Lossy\nDelay relative to video                  : -80ms\nStream size                              : 162 MiB (5%)\nLanguage                                 : English\nDefault                                  : Yes\nForced                                   : No","torrent":{"xt":"urn:btih:9f71892963bbf05b067226fcd5e678685a05b7fd","amp;dn":"Unrest+%282006%29+DVDRemux+%7BHQManiac%7D","amp;tr":["udp%3A%2F%2Ftracker.openbittorrent.com%3A80","udp%3A%2F%2Fopen.demonii.com%3A1337","udp%3A%2F%2Ftracker.coppersurfer.tk%3A6969","udp%3A%2F%2Fexodus.desync.com%3A6969"],"infoHash":"9f71892963bbf05b067226fcd5e678685a05b7fd","infoHashBuffer":{"type":"Buffer","data":[159,113,137,41,99,187,240,91,6,114,38,252,213,230,120,104,90,5,183,253]},"announce":[],"urlList":[]}}